<svg enable-background="new 0 0 512 512" viewBox="0 0 512 512" xmlns="http://www.w3.org/2000/svg"><path d="m433.531 177.531c0 40.043-28.086 106.04-83.477 196.141-40.503 65.887-81.586 121.479-81.996 122.039l-12.058 16.289-12.057-16.289c-.41-.56-41.493-56.152-81.996-122.039-55.391-90.101-83.477-156.098-83.477-196.141-.001-97.886 79.635-177.531 177.53-177.531s177.531 79.645 177.531 177.531z" fill="#ff1a4b"/><path d="m357.517 174.779c0 55.982-45.536 101.527-101.518 101.527s-101.517-45.546-101.517-101.527c0-55.972 45.536-101.518 101.517-101.518s101.518 45.546 101.518 101.518z" fill="#ffdba9"/><path d="m433.531 177.531c0 40.043-28.086 106.04-83.477 196.141-40.503 65.887-81.586 121.479-81.996 122.039l-12.058 16.289v-512c97.895 0 177.531 79.645 177.531 177.531z" fill="#d5243e"/><path d="m357.517 174.779c0 55.982-45.536 101.527-101.518 101.527v-203.045c55.983 0 101.518 45.546 101.518 101.518z" fill="#ffc473"/></svg>